<?xml version="1.0" encoding="utf-8"?>
<!-- Generator: Adobe Illustrator 27.9.3, SVG Export Plug-In . SVG Version: 9.03 Build 53313)  -->
<svg version="1.1" id="Calque_1" xmlns="http://www.w3.org/2000/svg" xmlns:xlink="http://www.w3.org/1999/xlink" x="0px" y="0px"
	 viewBox="0 0 1046.6 261.8" style="enable-background:new 0 0 1046.6 261.8;" xml:space="preserve">
<style type="text/css">
	.st0{fill:#FD0000;}
	.st1{fill:#FFFFFF;}
</style>
<g>
	<g>
		<path d="M903.2,234.9C903.2,234.9,903.2,234.9,903.2,234.9c-0.2-0.1-0.5-0.2-0.7-0.3L903.2,234.9z"/>
	</g>
	<g>
		<path d="M1038.1,67.9c-11.2-15.8-31-23.3-50.3-25.9c-23.9-3.2-48.7-0.1-71,8.9c-8.2,3.3-16.5,7.8-20.6,15.6
			c-1.2,2.3-1.9,4.6-2.3,7.1c-1.6-1.8-3.3-3.5-5.1-5.2c-17.4-16-42.3-20.7-65.8-13.6c-0.2-4.8-2-9.3-5.6-12.5
			c-7.4-6.7-18.7-5.9-28.5-4.6c-50.4,6.3-100.9,12.7-151.3,19l0,0.7c-10.9-10.5-25.2-17.4-40.2-19.5c-0.7-2.2-1.3-4.4-2-6.6
			c-1.3-4.2-3.2-8.7-5.8-12.3c-5-7-16.4-2.3-14.6,6.2c0.1,0.3,0.1,0.5,0.2,0.8c1.4,4,2.8,7.9,4,11.9c-18.4,2.4-35.8,12.3-47.2,27
			c-3.2-5.8-8-10.9-13.7-14c-15.4-8.3-34-6.7-51.4-4.8c-23.7,2.6-49,5.9-66.9,21.6c-5.6-10.6-16.1-18.8-27.7-17.4
			c-12.6,1.5-21.6,13.5-25,25.8c-3.4,12.3-2.7,25.2-4.6,37.8c-0.8,5.4-2.2,10.9-5.8,15c-3.6,4.1-9.9,6.3-14.6,3.7
			c-4-2.2-5.9-6.9-7.4-11.2c-7.4-21.1-14.9-42.2-22.3-63.3c-16.3-3.5-34.1,10.1-34.9,26.8l29.5,100.8c-8.7-29.6-17.5-59.2-26.2-88.8
			c-5.9-20.1-14.9-43.4-35.2-48.7c-16.9-4.4-34.8,6.7-43.8,21.8c-9,15-11,33-12.7,50.4c-1.7,17.4-3.4,35.4-11.9,50.7l0.3,3
			c-8.5-0.4-17.2-0.4-25.2,2.4c-8.9,3.2-17,10.8-17.6,20.2c-0.6,9.5,8.8,19.1,17.9,16.3c-13.2,19-44.9,16.8-60.3-0.5
			s-16.5-43.5-9.7-65.6c4.9-15.7,13.8-30.7,27.7-39.5c13.8-8.8,33-10.3,46.4-0.8c3.8,2.7,7.1,6.3,11.5,7.9c10.9,4,23.1-7.2,23-18.9
			c-0.1-11-8-20.5-17.7-26c-19.5-16.2-49.2-16.7-72.1-5.5c-23.5,11.5-40.5,33.2-52.2,56.6c-10,20-16.7,42.6-13,64.7
			c3.7,21.6,17.4,40.9,35.6,53.1s40.5,17.6,62.4,17c11.8-0.3,24.1-2.5,33.7-9.5c9.6-7,15.6-19.8,11.9-31c0.5,0.1,1.1,0.2,1.6,0.3
			l0.8,8c1.8,12.6,14,22.9,26.8,22.6c12.8-0.3,24.5-11.1,25.7-23.8c1-10-3.7-19.6-4.5-29.6S216,170,226,171
			c10.8,1.1,13.7,15.3,14.4,26.2c0.7,10.7,2.3,21.7,7.1,31.3c4.9,9.6,13.6,17.8,24.2,19.6c10.6,1.8,22.7-4.2,25.6-14.5
			c1.9-6.8-0.1-14-2.1-20.7c-0.5-1.7-1-3.4-1.5-5.1c1.1-17.1,2.1-34.1,3.2-51.2c1.8,16.6,17.1,30.9,33.7,30.7
			c16.7-0.2,31.9-15.6,31-32.3c7.2,11.2,6.9,25.5,6.4,38.8s-0.7,27.6,6.7,38.7c7.4,11.1,25.5,15.8,34,5.6c1.2-1.5,2.2-3.1,2.8-4.9
			c32.2,2.5,64.5,4.9,96.7,7.4c6.4,0.5,13.2,0.9,18.9-2c3.2-1.6,5.6-4,7.3-6.8c2.1,2,4.3,3.8,6.7,5.3c12.7,8.2,28.3,10.4,43.3,10.9
			c5.1,0.2,10.3,0.2,15.5-0.1c0.2,4,0.7,8,3.3,11.2c1.7,2.1,4.4,3.3,7,2.7c5-1,6.4-7.1,6.8-12c0.1-1.3,0.2-2.5,0.3-3.8
			c17.1-3.1,33.2-9.7,45.5-21.7c19.3-18.9,25.3-50,14.4-74.7c-10.8-24.7-37.8-41.3-64.8-39.9c-0.5,0-1,0.1-1.5,0.1
			c-1.3-11.1-2.8-22.2-4.8-33.2c6.6,1.9,13.1,5.3,19.1,8.8c4.2,2.4,9.2,4.9,13.8,5.1l0,0.5c2.9,8.4,13.9,10.9,22.7,9.4
			c8.8-1.5,17.2-5.7,26.1-5.2c13.7,0.7,24.9,12.8,28.6,26c3.7,13.2,1.5,27.4-1.5,40.8c-3,13.4-7,26.9-6.6,40.6
			c0.3,13.8,5.8,28.3,17.6,35.5c11.7,7.2,30,3.6,35.1-9.2c2.8-6.9,1.4-14.7-0.1-22c-6-30.7-12.1-61.4-18.1-92.2
			c-1.2-6.3-2.4-13,0.3-18.8c5.6-12,22.4-11.5,35.7-11c2.3,0.1,4.6,0.1,6.9,0c-0.9,1.7-1.7,3.4-2.4,5.1c-6,14.1-7.8,29.6-8.9,44.9
			c-1.4,20.4-1.5,41.3,4.5,60.9c6,19.6,18.9,37.9,37.5,46.3c26.3,11.8,59.1,0.9,77.9-21c4.3-5,7.9-10.4,11-16.1
			c-0.4,10.1-1.2,20.1-2.3,30.2c13.1,4.2,26.9,6.2,40.7,6c4.7-0.1,9.8-0.5,13.4-3.6c3.9-3.4,5-9.2,4.2-14.3
			c-0.9-5.1-3.4-9.8-5.6-14.5c-5.9-12.3-10.3-25.2-13.1-38.6c-1.5-7.4-2.2-16,3-21.4c7.5-7.8,20.2-3.1,30.6-0.6
			c21.2,5.1,45.3-2.2,59-19.1C1049,111.8,1050.7,85.7,1038.1,67.9z M228.9,126.5c-4.7,5.2-15.2,4.4-16.9-2.4l-0.7-0.3
			c-1.9-5.8-3.8-12-2.5-18c1.3-6,7.1-11.5,13.1-10.1c4.9,1.1,7.8,6.1,9.3,10.9C233.3,113.3,233.5,121.3,228.9,126.5z M588.6,75.8
			c2.2,11.6,3.9,23.2,5.1,35c-0.6,0-1.1,0-1.7-0.1c-6.8-0.5-14-3.5-17.3-9.5C569.5,91.5,578,79.2,588.6,75.8z M402,121.3
			c0.2-1.7,0.4-3.4,0.6-5.1l4.9,82.9C400.9,173.8,399,147.3,402,121.3z M562.7,192.7c-7.5-5.7-16.2-12.1-25.4-10
			c-1.6,0.4-3,1-4.4,1.7c-2.4-4.5-5.8-8-10.8-8.6c-8.1-1-14.4,6.4-20.3,11.9c-5.7,5.3-12.7,9.7-20.5,10.4
			c-7.8,0.7-16.3-2.9-19.7-9.9s0.2-17,7.7-19c4-1,8.3,0.2,12.4-0.1c10.2-0.6,18.5-11.4,16.4-21.4c-2.1-10-14.1-16.6-23.7-13
			c-2.3,0.9-4.5,2.2-6.9,2.8c-9.3,2.2-17.4-9.6-14.5-18.8c2.9-9.1,12.8-14.4,22.3-15.7c9.5-1.3,19.1,0.4,28.7,0.5
			c5.3,0,10.7-0.5,15.7-2.2c0.4,5.8,1.9,11.5,4.9,16.6c9,15.2,27.9,21.4,45.5,22.8c8.7,0.7,17.4,0.6,26.1,0.7
			c1.5,23.7,1.9,47.7,2.5,71.6C585.8,208.9,573.7,201,562.7,192.7z M622.9,144.1c17.2,4.1,34.2,16.7,35.6,34.3
			c1.6,20.4-19.6,37.1-40.1,37.5c-0.1,0-0.2,0-0.3,0c-0.2-12-0.9-23.9-1.6-35.9c-0.7-12.5-1.4-25-2.3-37.5
			C617.1,142.9,620,143.4,622.9,144.1z M857.9,166.1c-4.1,5.6-11.5,8.9-18.2,7.1c-8.4-2.3-13.1-11.7-12.9-20.4
			c0.2-8.7,4.3-16.7,8.2-24.4l-1.2,0.9c4.9-4.8,13.3-4.6,18.9-0.6c5.6,4,8.6,10.8,9.4,17.6C863.1,153.2,862,160.5,857.9,166.1z
			 M988.1,103.9c-3.7,7.8-15.1,11.2-21.8,5.7l0,0.2c-2.7-4.9-5.5-10.1-6-15.7c-0.6-5.6,1.7-11.9,6.7-14.4c4.3-2.1,9.7-1.1,13.7,1.5
			C988,85.9,991.8,96,988.1,103.9z"/>
	</g>
</g>
<g>
	<g>
		<path class="st0" d="M623.6,42.6c50.4-6.3,100.9-12.7,151.3-19c9.9-1.2,21.2-2.1,28.5,4.6c9.2,8.4,6.3,24.8-3.1,32.9
			c-9.4,8.2-22.8,9.8-35.3,9.4c-13.3-0.5-30.1-1-35.7,11c-2.7,5.8-1.5,12.6-0.3,18.8c6,30.7,12.1,61.4,18.1,92.2
			c1.4,7.3,2.8,15.1,0.1,22c-5.1,12.8-23.3,16.3-35.1,9.2c-11.7-7.2-17.2-21.7-17.6-35.5s3.6-27.2,6.6-40.6s5.2-27.6,1.5-40.8
			c-3.7-13.2-14.8-25.3-28.6-26c-8.9-0.5-17.3,3.7-26.1,5.2c-8.8,1.5-19.8-0.9-22.7-9.4"/>
		<g>
			<path d="M623.6,44.1c26.8-3.4,53.6-6.7,80.4-10.1c13.4-1.7,26.8-3.4,40.2-5c6.8-0.9,13.6-1.7,20.3-2.6c5.9-0.7,11.8-1.7,17.7-2
				c9.3-0.6,20.7,1,24.3,11.1c2.9,8.2-0.3,18.1-6.5,24c-7.8,7.4-19.2,9.5-29.6,9.7c-9.3,0.2-18.7-1-27.9,1.2c-4,1-7.9,2.7-10.9,5.6
				c-3.6,3.5-5.3,8.4-5.4,13.5c-0.1,6.2,1.6,12.4,2.7,18.4c1.3,6.6,2.6,13.2,3.9,19.9c2.6,13.2,5.2,26.5,7.8,39.7
				c1.3,6.6,2.6,13.2,3.9,19.9c1.2,6.1,2.8,12.4,2.8,18.7c0,5-1.4,9.9-4.8,13.6c-2.8,2.9-6.4,4.8-10.2,5.8c-8.5,2.2-17.4-0.1-23.8-6
				c-7.3-6.8-11.1-16.8-12.1-26.5c-1.3-12.6,1.7-25.1,4.6-37.2c2.9-12.3,6-24.9,5.1-37.7c-0.7-10.7-4.4-21-12-28.8
				c-3.4-3.4-7.4-6.2-11.9-7.9c-5.1-1.9-10.6-2-16-1c-10.3,1.9-20.4,7.4-31,3.8c-3.7-1.2-7-3.7-8.4-7.5c-0.6-1.8-3.5-1-2.9,0.8
				c3.2,8.9,13.7,11.7,22.2,10.8c11.5-1.2,22.5-8.2,34.2-4.3c9.3,3.1,16.4,11.4,19.8,20.3c4.6,11.9,3.3,25.2,0.9,37.4
				c-4.5,22.9-14.1,47.9-2.1,70.3c4.5,8.4,12.1,15.3,21.7,16.9c8.3,1.4,17.7-0.7,23.7-6.9c8.3-8.5,5.9-20.9,3.8-31.4
				c-2.7-13.6-5.3-27.1-8-40.7s-5.3-27.1-8-40.7c-1.2-6.2-3-12.6-3-18.9c0-5,1.7-9.9,5.7-13c3.3-2.6,7.6-3.8,11.8-4.4
				c4.5-0.7,9.2-0.7,13.8-0.6c10.7,0.2,21.4,0.4,31.4-3.8c4.6-2,9.1-4.8,12.3-8.7c2.9-3.6,5-7.9,5.9-12.4c0.9-4.4,0.7-9-1-13.2
				c-1.8-4.4-5.1-7.8-9.4-9.9c-10.2-4.8-22.5-2.1-33.1-0.7c-13.6,1.7-27.3,3.4-40.9,5.1c-27.4,3.4-54.7,6.9-82.1,10.3
				c-6.6,0.8-13.2,1.7-19.8,2.5C621.7,41.3,621.6,44.3,623.6,44.1L623.6,44.1z"/>
		</g>
	</g>
	<g>
		<path class="st0" d="M663.4,135.4c-10.8-24.7-37.8-41.3-64.8-39.9c-0.5,0-1,0.1-1.5,0.1c-1.3-11.1-2.8-22.2-4.8-33.2
			c6.6,1.9,13.1,5.3,19.1,8.8c6.3,3.7,14.4,7.4,20.4,3.3c4.4-3,5.4-9.3,3.9-14.4c-1.5-5.1-5.1-9.3-8.6-13.3l0.8,1.1
			c-11.2-13.1-27.4-21.7-44.5-24c-0.7-2.2-1.3-4.4-2-6.6c-1.3-4.2-3.2-8.7-5.8-12.3c-5-7-16.4-2.3-14.6,6.2c0.1,0.3,0.1,0.5,0.2,0.8
			c1.4,4,2.8,7.9,4,11.9c-19.4,2.5-37.7,13.4-49,29.4c-10.4,14.7-14.6,35.2-5.4,50.6c9,15.2,27.9,21.4,45.5,22.8
			c8.7,0.7,17.4,0.6,26.1,0.7c1.5,23.7,1.9,47.7,2.5,71.6c-13-4.1-25.2-11.9-36.2-20.2c-7.5-5.7-16.2-12.1-25.4-10
			c-7.4,1.7-12.6,8.6-14.3,16c-3.4,14.7,5.6,30.2,18.3,38.3c12.7,8.2,28.3,10.4,43.3,10.9c5.1,0.2,10.3,0.2,15.5-0.1
			c0.2,4,0.7,8,3.3,11.2c1.7,2.1,4.4,3.3,7,2.7c5-1,6.4-7.1,6.8-12c0.1-1.3,0.2-2.5,0.3-3.8c17.1-3.1,33.2-9.7,45.5-21.7
			C668.2,191.2,674.2,160.1,663.4,135.4z M578.1,96.7c-6.8-0.5-14-3.5-17.3-9.5c-5.3-9.8,3.2-22,13.8-25.4c2.2,11.6,3.9,23.2,5.1,35
			C579.2,96.8,578.7,96.8,578.1,96.7z M604.4,201.9c-0.1,0-0.2,0-0.3,0c-0.2-12-0.9-23.9-1.6-35.9c-0.7-12.5-1.4-25-2.3-37.5
			c2.9,0.4,5.9,0.9,8.8,1.6c17.2,4.1,34.2,16.7,35.6,34.3C646.1,184.8,624.9,201.4,604.4,201.9z"/>
		<g>
			<path d="M664.7,134.7c-8.8-20-28-34.8-49.3-39.3c-6-1.3-12.2-1.7-18.3-1.3c0.5,0.5,1,1,1.5,1.5c-1.3-11.2-2.8-22.5-4.8-33.6
				c-0.6,0.6-1.2,1.2-1.8,1.8c5.6,1.7,10.9,4.2,16,7.1c4.6,2.6,9.2,5.5,14.4,6.5c4.7,0.9,9.7-0.1,12.8-4c2.8-3.6,3.3-8.4,2.3-12.7
				c-1.3-5.8-5.5-10.6-9.3-15c-1.1-1.3-3.4,0.5-2.4,1.8c0.3,0.4,0.5,0.7,0.8,1.1c0.8-0.6,1.6-1.2,2.4-1.8
				c-8.9-10.3-20.8-17.9-33.8-21.9c-3.7-1.1-7.5-2-11.3-2.5c0.3,0.3,0.7,0.7,1,1c-1.4-4.9-2.8-9.8-5.1-14.3
				c-1.7-3.4-3.7-7.1-7.4-8.5c-5.7-2.2-12.5,1.8-13.1,7.9c-0.2,2.4,0.8,4.6,1.5,6.9c1,2.9,2,5.8,2.9,8.7c0.5-0.6,1-1.3,1.4-1.9
				c-25,3.4-48.7,20-57.6,44.1c-4.3,11.7-4.9,25.2,0.9,36.5c5.5,10.7,16,17.5,27.1,21.2c15.1,5.1,31,4.5,46.7,4.7
				c-0.5-0.5-1-1-1.5-1.5c1.1,18.5,1.7,37.1,2.1,55.6c0.1,5.3,0.3,10.6,0.4,15.9c0.6-0.5,1.3-1,1.9-1.4
				c-13.9-4.4-25.9-12.7-37.5-21.4c-5.3-3.9-11-8-17.7-9.1c-6.1-1-12,1-16.3,5.5c-8.6,9-8.5,22.8-3.5,33.5c5.5,11.7,16,19.7,27.9,24
				c7.2,2.6,14.9,4,22.5,4.7c8.4,0.8,16.9,0.9,25.3,0.5c-0.5-0.5-1-1-1.5-1.5c0.2,3.9,0.7,8,3,11.3c2.2,3,5.9,5,9.7,3.9
				c7.1-2,7.4-11.3,7.7-17.2c-0.4,0.5-0.7,1-1.1,1.4c18.1-3.3,36.1-10.8,48.7-24.7c11.3-12.5,17.5-29.3,17.7-46.2
				C670.4,152.9,668.5,143.4,664.7,134.7c-0.8-1.8-3.4-0.2-2.6,1.5c6.5,14.8,6.7,32,1.6,47.3c-2.6,7.7-6.5,15-11.7,21.2
				c-5.6,6.7-12.6,12.1-20.2,16.2c-8.9,4.8-18.7,7.8-28.7,9.6c-0.7,0.1-1.1,0.8-1.1,1.4c-0.2,3-0.3,6-1.1,8.8
				c-0.6,2.1-1.7,4.4-3.9,5.3c-2.9,1.2-5.8-0.6-7.3-3.1c-1.7-2.7-2-6-2.2-9.1c0-0.8-0.7-1.5-1.5-1.5c-13.6,0.7-27.7,0.3-40.9-3.2
				c-11.8-3.2-22.9-9.4-29.6-19.9c-6.1-9.4-8.2-22.2-1.6-32c3.2-4.6,8.1-7.6,13.8-7.4c6.4,0.3,12.2,4.2,17.2,7.9
				c6.1,4.5,12.1,9,18.6,13c6.6,4,13.6,7.4,21,9.7c0.9,0.3,1.9-0.5,1.9-1.4c-0.5-18.6-0.9-37.2-1.7-55.7c-0.2-5.3-0.5-10.6-0.8-15.8
				c-0.1-0.8-0.6-1.5-1.5-1.5c-13.6-0.2-27.3,0.3-40.6-3.1c-10.6-2.7-21.3-7.9-27.9-17c-7.1-9.9-8-22.6-4.8-34.1
				c3.2-11.8,10.4-22.1,19.6-30c10.2-8.8,23.1-14.7,36.5-16.5c0.9-0.1,1.8-0.9,1.4-1.9c-0.7-2.2-1.4-4.4-2.2-6.7
				c-0.7-2-1.8-4.2-2.1-6.3c-0.4-2.3,0.6-4.5,2.4-5.9c1.8-1.3,4.2-1.8,6.3-1.2c3,0.9,4.6,4.1,5.9,6.7c2.3,4.5,3.6,9.4,5.1,14.2
				c0.1,0.5,0.5,1,1,1c16.9,2.4,32.7,10.7,43.8,23.7c1.1,1.3,3.4-0.5,2.4-1.8c-0.3-0.4-0.5-0.7-0.8-1.1c-0.8,0.6-1.6,1.2-2.4,1.8
				c5.2,6,12.4,15,7.1,23.2c-2.5,3.8-7.1,4.3-11.1,3.2c-4.7-1.2-8.9-3.9-13.1-6.3c-5.1-2.8-10.4-5.4-16.1-7.1
				c-1.2-0.3-2,0.8-1.8,1.8c1.9,10.9,3.5,21.8,4.7,32.8c0.1,0.8,0.6,1.6,1.5,1.5c21.1-1.6,42.1,8,55.6,24.1c3.8,4.5,7,9.6,9.3,15
				C662.9,138,665.5,136.4,664.7,134.7z"/>
			<path d="M578.1,95.2c-6.4-0.5-13.7-3.3-16.4-9.7c-2.5-5.7,0.2-12.2,4.2-16.4c2.5-2.7,5.7-4.7,9.2-5.9c-0.6-0.3-1.2-0.7-1.8-1
				c2.2,11.4,3.8,23,5.1,34.6c0.5-0.5,1-1,1.5-1.5C579.2,95.3,578.7,95.3,578.1,95.2c-1.9-0.1-1.9,2.9,0,3c0.6,0,1.1,0.1,1.7,0.1
				c0.7,0,1.6-0.7,1.5-1.5c-1.3-11.8-3-23.6-5.2-35.4c-0.1-0.8-1.1-1.3-1.8-1c-7,2.3-13.2,7.9-15.6,14.9c-2.5,7.3,0.5,14.8,6.9,18.9
				c3.8,2.4,8.2,3.6,12.6,4C580,98.4,580,95.4,578.1,95.2z"/>
			<path d="M604.4,200.4c-0.1,0-0.2,0-0.3,0c0.5,0.5,1,1,1.5,1.5c-0.4-19-1.7-38.1-2.8-57.1c-0.3-5.4-0.7-10.9-1.1-16.3
				c-0.5,0.5-1,1-1.5,1.5c15.6,2.1,32.4,9.2,39.9,24c3.3,6.6,4,14.2,1.6,21.3c-2.4,6.9-7.4,12.8-13.3,17
				C621.3,197.2,612.9,200.2,604.4,200.4c-1.9,0-1.9,3,0,3c15.8-0.4,32.5-9.7,39-24.5c3.2-7.4,3.5-15.7,0.6-23.2
				c-3-7.7-8.7-13.9-15.5-18.6c-8.5-5.8-18.3-8.7-28.4-10.1c-0.8-0.1-1.6,0.8-1.5,1.5c1.4,19,2.5,38,3.4,57c0.3,5.5,0.5,11,0.6,16.4
				c0,0.8,0.7,1.5,1.5,1.5c0.1,0,0.2,0,0.3,0C606.3,203.4,606.3,200.4,604.4,200.4z"/>
		</g>
	</g>
	<g>
		<path class="st1" d="M385.8,53.8c17.9-15.9,43.3-19.2,67.1-21.8c17.4-1.9,36-3.6,51.4,4.8s24.1,30.9,12.3,43.8
			c-6.5,7.1-16.8,9.1-26.4,9c-9.6-0.1-19.2-1.8-28.7-0.5s-19.3,6.6-22.3,15.7s5.1,21,14.5,18.8c2.4-0.6,4.6-1.9,6.9-2.8
			c9.6-3.6,21.6,3,23.7,13s-6.2,20.9-16.4,21.4c-4.1,0.2-8.4-1-12.4,0.1c-7.6,1.9-11.1,11.9-7.7,19c3.4,7,11.9,10.7,19.7,9.9
			c7.8-0.7,14.8-5.1,20.5-10.4c5.9-5.6,12.2-12.9,20.3-11.9c9.5,1.2,13.3,12.7,15.1,22.2c2.7,14.7,3.4,33.6-9.9,40.4
			c-5.7,2.9-12.5,2.5-18.9,2c-33-2.5-65.9-5-98.9-7.6"/>
		<g>
			<path d="M386.8,54.8c17-15.1,40.7-18.5,62.5-21c11.8-1.3,23.8-2.8,35.7-1.4c10.6,1.2,21,5.1,27.9,13.5c5.4,6.6,9,16,7.1,24.6
				c-1,4.4-3.3,8.2-6.7,11c-4.1,3.4-9.3,5.1-14.4,5.9c-12.7,2-25.5-1.7-38.2,0.2c-9.6,1.4-20.2,7.1-23,17c-2.4,8.2,3.1,19.1,12,20.5
				c2.5,0.4,4.9-0.2,7.2-1.2c2.4-1,4.7-2.3,7.4-2.6c4.4-0.5,9,1,12.5,3.7c3.6,2.7,6.1,6.9,6.2,11.4c0.1,4.8-2,9.4-5.4,12.7
				c-1.7,1.6-3.6,2.9-5.8,3.7c-2.7,1-5.4,1-8.2,0.8c-3.1-0.2-6.2-0.6-9.2,0.4c-2,0.7-3.9,1.9-5.4,3.4c-3,3.2-4.5,7.7-4.1,12.1
				c0.4,4.8,3,9,6.8,11.8c8.9,6.7,20.8,5,29.7-0.7c4.8-3,8.7-7.1,12.9-11c3.7-3.4,8.2-6.9,13.5-6.4c9.3,0.9,12.4,12.9,13.9,20.5
				c1.7,8.9,2.8,18.7,0.2,27.5c-1.2,4-3.3,7.7-6.6,10.2c-4.7,3.5-10.6,4-16.3,3.7c-6.8-0.3-13.6-1-20.4-1.5
				c-7-0.5-13.9-1.1-20.9-1.6c-13.9-1.1-27.8-2.1-41.8-3.2c-6.8-0.5-13.6-1-20.4-1.6c-1.9-0.1-1.9,2.9,0,3c28.5,2.2,57,4.4,85.5,6.5
				c6.7,0.5,13.6,1.4,20.3,1.4c5.7,0,11.4-1.1,15.9-4.6c7.3-5.7,9.1-15.5,9-24.3c0-4.9-0.6-9.7-1.4-14.5c-0.8-4.7-1.9-9.4-3.9-13.8
				c-1.8-4-4.7-7.9-8.8-9.7c-4.7-2.1-9.9-1.1-14.2,1.6c-4.7,2.9-8.3,7.2-12.4,10.8c-4.4,3.9-9.6,7.1-15.4,8.4
				c-5,1.1-10.3,0.5-14.8-2c-4-2.3-7.2-6.2-7.5-11c-0.2-4.1,1.4-8.8,5-11.2c5-3.4,11.5-0.6,17-1.6c9.6-1.6,17.2-11.7,16.1-21.4
				c-1.1-9.6-10.2-16.8-19.7-16.9c-2.4,0-4.7,0.5-6.9,1.4c-2.6,1.1-5.1,2.7-8,2.7c-4.3,0-7.8-3.3-9.7-6.9c-2.2-4.2-2.1-8.9,0.1-13
				c2.4-4.4,6.7-7.6,11.3-9.5c12.1-5.1,25.5-1.6,38.1-1.7c10.5-0.1,22.1-2.8,28.4-11.9c5.1-7.4,4.8-17.2,1.5-25.3
				c-3.7-9.1-10.8-16.3-19.8-20.2c-11.3-4.8-23.8-5.2-35.9-4.3c-11.7,0.8-23.5,2.2-35.1,4.2c-11,1.9-22,4.8-32,10
				c-4.9,2.5-9.4,5.6-13.5,9.2C383.3,54,385.4,56.1,386.8,54.8L386.8,54.8z"/>
		</g>
	</g>
	<g>
		<path class="st1" d="M243.8,70.7c0.8-16.7,18.6-30.3,34.9-26.8c7.4,21.1,14.9,42.2,22.3,63.3c1.5,4.3,3.4,9,7.4,11.2
			c4.8,2.6,11.1,0.4,14.6-3.7s5-9.6,5.8-15c1.9-12.6,1.2-25.6,4.6-37.8c3.4-12.3,12.4-24.3,25-25.8c14.8-1.8,27.7,12,31.2,26.6
			c3.4,14.6,0.2,29.7-1.5,44.6c-3.2,28.1-0.8,56.8,7.2,83.9c3.2,10.9,6.9,23.9-0.4,32.6c-8.5,10.3-26.6,5.5-34-5.6
			c-7.4-11.1-7.2-25.4-6.7-38.7c0.5-13.3,0.8-27.6-6.4-38.8c0.9,16.6-14.3,32.1-31,32.3S284.8,159,283,142.4
			c-1.1,17.1-2.1,34.2-3.2,51.4"/>
		<g>
			<path d="M245.3,70.7c0.6-12.3,11-22.7,22.8-25.3c3.4-0.7,6.8-0.8,10.2-0.1c-0.3-0.3-0.7-0.7-1-1c6.7,19,13.4,38,20.1,57
				c1.4,4.1,2.6,8.3,4.6,12.1c1.7,3.2,4.2,6.1,7.8,7.2c7.7,2.3,14.8-3.6,17.7-10.2c1.7-3.9,2.5-8.1,3-12.3c0.6-4.8,0.9-9.5,1.3-14.3
				c0.6-8.9,1.3-18.1,4.7-26.4c2.7-6.7,7.3-13.1,13.6-16.8c6.1-3.6,13.6-4,20-1c6.6,3.1,11.7,8.9,15,15.4c4,7.9,4.7,16.9,4.4,25.7
				c-0.4,9.7-2.2,19.2-3.2,28.8c-1,9.5-1.3,19.1-1,28.6c0.3,9.6,1.3,19.2,2.8,28.7c1.5,9.3,3.8,18.4,6.4,27.5
				c2.1,7.2,4.3,15.3,2.3,22.7c-1.8,6.3-7,10.7-13.6,11.1c-6.3,0.4-12.7-2.1-17.3-6.3c-5.8-5.2-8.5-13-9.6-20.5
				c-2.5-16.7,2-33.8-2.4-50.3c-1-3.9-2.6-7.6-4.8-10.9c-0.8-1.2-2.9-0.8-2.8,0.8c0.6,12.4-8,24.1-19.3,28.7
				c-11.9,4.8-25,0.6-33.5-8.5c-4.8-5.1-8.1-11.6-8.9-18.6c-0.2-1.9-2.9-2-3,0c-1.1,17.1-2.1,34.2-3.2,51.4c-0.1,1.9,2.9,1.9,3,0
				c1.1-17.1,2.1-34.2,3.2-51.4c-1,0-2,0-3,0c1.6,13.6,11.3,25.6,24.1,30.2c6.3,2.3,13.4,2.6,19.8,0.6c6.5-2,12.3-6.1,16.6-11.4
				c4.8-5.9,7.6-13.3,7.3-21c-0.9,0.3-1.9,0.5-2.8,0.8c10.7,16.8,4.6,37.8,6.4,56.4c0.8,8.8,3.3,18.3,9.7,24.8
				c5.1,5.2,12.6,8.5,19.9,8.3c7.7-0.2,14.3-4.8,16.9-12.1c2.9-8.4,0.3-17.9-2.1-26c-3-10.4-5.5-20.9-7-31.6
				c-1.6-10.9-2.2-21.9-2.1-32.9c0.2-11.1,1.5-22,2.9-32.9c1.4-10.9,2.5-22.2-0.1-33.1c-3.7-15.5-18.5-31.5-35.8-27.1
				c-8.1,2-14.4,8.2-18.6,15.2c-5,8.6-6.6,18.4-7.4,28.2c-0.5,5.4-0.7,10.8-1.3,16.2c-0.5,4.9-1.1,10.1-3.3,14.6
				c-1.8,4-4.9,7.3-9.2,8.3c-4.3,1.1-8-0.9-10.2-4.6c-1.1-1.8-1.8-3.7-2.5-5.7c-1-2.7-1.9-5.5-2.9-8.2c-1.9-5.4-3.8-10.8-5.7-16.2
				c-3.8-10.9-7.7-21.7-11.5-32.6c-0.5-1.3-0.9-2.7-1.4-4c-0.4-1.1-0.7-3.1-1.6-3.8c-0.7-0.6-2-0.6-2.9-0.7c-1-0.1-2-0.2-3-0.2
				c-3.9,0-7.8,0.8-11.3,2.2c-7.3,3-13.6,8.5-17.1,15.6c-1.7,3.5-2.7,7.2-2.9,11.1C242.2,72.6,245.2,72.6,245.3,70.7L245.3,70.7z"/>
		</g>
	</g>
	<g>
		<path class="st1" d="M281.3,198.7c-11.4-38.7-22.8-77.3-34.2-116c-5.9-20.1-14.9-43.4-35.2-48.7c-16.9-4.4-34.8,6.7-43.8,21.8
			c-9,15-11,33-12.7,50.4c-1.7,17.4-3.4,35.4-11.9,50.7l5,52.2c1.8,12.6,14,22.9,26.8,22.6c12.8-0.3,24.5-11.1,25.7-23.8
			c1-10-3.7-19.6-4.5-29.6S202,156,212,157c10.8,1.1,13.7,15.3,14.4,26.2c0.7,10.7,2.3,21.7,7.1,31.3c4.9,9.6,13.6,17.8,24.2,19.6
			c10.6,1.8,22.7-4.2,25.6-14.5C285.3,212.7,283.3,205.5,281.3,198.7z M214.9,112.5c-4.7,5.2-15.2,4.4-16.9-2.4l-0.7-0.3
			c-1.9-5.8-3.8-12-2.5-18c1.3-6,7.1-11.5,13.1-10.1c4.9,1.1,7.8,6.1,9.3,10.9C219.3,99.3,219.5,107.3,214.9,112.5z"/>
		<g>
			<path d="M282.8,198.3c-8.9-30.2-17.8-60.4-26.7-90.6c-2.3-7.7-4.5-15.3-6.8-23c-1.6-5.5-3.3-10.9-5.3-16.3
				c-3.7-9.9-8.6-19.9-16.5-27.3c-8.1-7.6-19.1-11.1-30.1-8.9c-11.5,2.3-21.6,10-28.4,19.4c-7.9,11-11.3,24.6-13.2,37.8
				c-2,13.6-2.5,27.4-5,40.9c-1.3,6.8-3,13.7-5.8,20.1c-0.6,1.5-1.3,2.9-2,4.3c-0.4,0.7-1,1.5-1,2.4c0,0.4,0.1,0.9,0.1,1.3
				c0.5,5.5,1.1,11,1.6,16.6c1.1,11.4,2,22.9,3.3,34.3c1.3,11,10.5,20.4,20.9,23.2c11,3,22.5-1.9,29.2-10.8c3.5-4.6,5.4-10.2,5.5-16
				c0.1-7.1-2.2-14-3.7-20.9c-1.2-5.7-1.5-11.2,0.7-16.7c1.6-4.2,4.8-8.4,9.5-9.3c4.4-0.9,8.5,1.5,10.8,5.2
				c2.7,4.2,3.8,9.3,4.5,14.2c0.8,6.2,1,12.4,2,18.6c1.1,6.8,3.1,13.6,6.4,19.7c5.5,10.2,15.6,19,27.6,19.6
				c10.5,0.5,21.8-5.8,24.5-16.4C286.8,212.4,284.7,205.1,282.8,198.3c-0.5-1.8-3.4-1.1-2.9,0.8c2,6.7,4.2,14.2,1.7,21
				c-1.7,4.8-5.8,8.5-10.4,10.6c-10.5,4.8-22,0.5-29.6-7.5c-9.2-9.7-12.1-23.2-13.3-36c-0.5-5.3-0.7-10.6-2-15.8
				c-1.1-4.4-2.9-9-6.2-12.3c-3.3-3.1-8.1-4.5-12.5-3.2c-4.6,1.3-7.9,5.2-9.9,9.4c-2.3,4.9-3,10.2-2.3,15.5
				c0.9,6.9,3.4,13.6,4.1,20.5c0.6,5.9-0.3,11.6-3.5,16.7c-2.8,4.5-7.1,8.2-12,10.3c-10.3,4.5-22,0.7-28.9-7.9
				c-2.6-3.2-4.6-7.5-5.1-11.5c-0.2-1.4-0.3-2.8-0.4-4.2c-0.6-6.5-1.2-12.9-1.9-19.4c-0.7-7-1.3-14.1-2-21.1
				c-0.2-2.1-0.4-4.1-0.6-6.2c0-0.4-0.1-0.8-0.1-1.1c0-0.2-0.2,0.7,0,0.3c0.5-0.7,0.8-1.6,1.2-2.3c0.8-1.5,1.5-3.1,2.1-4.7
				c10.3-25.1,6.4-53.1,14.5-78.7c3.7-11.8,10.1-22.6,20.3-29.8c9.3-6.5,20.8-9.3,31.7-5.2c9.6,3.7,16.3,12.1,21,20.9
				c5.4,10.1,8.5,21,11.7,31.9c8.7,29.4,17.4,58.8,26,88.2c2.1,7.2,4.2,14.4,6.4,21.6C280.4,201,283.3,200.2,282.8,198.3z"/>
			<path d="M213.8,111.5c-2.3,2.5-5.9,3.4-9.2,2.7c-1.5-0.3-2.9-1-4-2.1c-0.5-0.5-0.9-1.2-1.1-1.9c-0.3-1-0.6-1.3-1.5-1.7
				c0.2,0.3,0.5,0.6,0.7,0.9c-1.6-5-3.4-10.2-2.8-15.5c0.4-4.1,2.8-8.2,6.6-10.1c8.7-4.3,13.5,7.9,14.4,14.4
				C217.5,102.8,216.9,107.8,213.8,111.5c-1.3,1.5,0.9,3.6,2.1,2.1c3.5-4,4.5-9.3,4.1-14.4c-0.5-5-2-10.4-5.2-14.4
				c-3.1-3.9-8-5.9-12.8-4c-4.7,1.9-8.1,6.6-8.9,11.5c-0.6,3.5-0.2,7.1,0.6,10.6c0.4,1.9,1,3.7,1.6,5.5c0.2,0.7,0.4,1.9,1,2.5
				c0.3,0.3,0.7,0.4,1,0.6c-0.2-0.3-0.5-0.6-0.7-0.9c2.2,8.4,14.2,8.7,19.4,3.1C217.2,112.2,215.1,110,213.8,111.5z"/>
		</g>
	</g>
	<g>
		<path class="st1" d="M141.3,56.8C121.8,39.4,91.2,38.5,67.7,50s-40.5,33.2-52.2,56.6c-10,20-16.7,42.6-13,64.7
			c3.7,21.6,17.4,40.9,35.6,53.1s40.5,17.6,62.4,17c11.8-0.3,24.1-2.5,33.7-9.5s15.6-19.8,11.9-31c7.5,1.5,15.2,3,22.7,1.8
			c7.5-1.3,15-6,17.2-13.2c2.8-9.1-3.4-19-11.7-23.6c-8.3-4.6-18.2-5.2-27.7-5.6c-9.5-0.5-19.2-0.9-28.1,2.3
			c-8.9,3.2-17,10.8-17.6,20.2s8.8,19.1,17.9,16.3c-13.2,19-44.9,16.8-60.3-0.5s-16.5-43.5-9.7-65.6c4.9-15.7,13.8-30.7,27.7-39.5
			s33-10.3,46.4-0.8c3.8,2.7,7.1,6.3,11.5,7.9c10.9,4,23.1-7.2,23-18.9s-9-21.7-19.4-27"/>
		<g>
			<path d="M142.3,55.7c-9.8-8.7-22.3-13.4-35.2-14.6C94,40,80.6,42.4,68.6,47.9c-12.6,5.7-23.5,14.7-32.6,25
				c-9.3,10.6-16.9,22.6-23,35.3c-6.9,14.3-12,29.7-12.9,45.6c-0.8,14.5,2.4,28.9,9.4,41.6c6.6,12,16.2,22.3,27.5,29.9
				c12.5,8.5,27.1,13.8,42.1,16.1c7.5,1.1,15.1,1.6,22.7,1.3c7.4-0.3,14.8-1.3,21.8-3.8c6.6-2.4,12.8-6.1,17.4-11.5
				c4.2-5,7.1-11.2,7.7-17.8c0.3-3.2-0.1-6.4-1.1-9.4c-0.6,0.6-1.2,1.2-1.8,1.8c7.7,1.6,15.6,3.1,23.5,1.8c5.8-1,11.6-3.9,15.3-8.6
				c8.1-10.4,1.7-24.2-8.4-30.4c-5.9-3.6-13-5-19.8-5.7c-7.3-0.7-14.7-1.1-22-0.9c-7,0.2-14.2,1.2-20.5,4.5
				c-5.2,2.7-9.8,6.9-12.4,12.3c-2.9,6.1-2.7,13,1.3,18.5c3.7,5.2,10,8.6,16.4,6.8c-0.6-0.7-1.1-1.5-1.7-2.2
				c-10.6,15.1-32.8,15.5-47.7,7.2c-18.9-10.4-24.9-33.7-23.1-53.9c1-11.2,4.2-22.2,9.2-32.2c5-9.9,12.2-19,21.7-25
				c9.2-5.8,20.8-8.3,31.5-6.1c5.4,1.1,10.4,3.4,14.7,6.9c4.4,3.5,8.7,7.3,14.5,7.6c9.9,0.6,18.8-8.5,20.4-17.9
				c1.8-10.8-5-21-13.2-27.3c-2.1-1.6-4.3-3-6.7-4.2c-1.7-0.9-3.2,1.7-1.5,2.6c9.4,4.8,18.2,13.8,18.6,24.9c0.4,9.4-8,19.7-18,18.9
				c-5.9-0.5-10.1-5.5-14.7-8.7c-4.5-3.2-9.9-5.2-15.3-6c-11-1.7-22.5,0.9-31.9,6.8c-19.3,12.1-29.7,35.6-32.2,57.5
				c-2.4,20.7,3.1,44.8,21.4,57c14.7,9.7,36.9,11.1,50.4-1.5c1.6-1.5,3.1-3.2,4.3-5c0.8-1.1-0.5-2.6-1.7-2.2
				c-4.9,1.4-9.9-1.2-12.9-5.1c-3.3-4.3-3.9-9.5-2-14.5c4.2-11.3,17-15.7,28-16.4c6.6-0.4,13.3,0,20,0.4c6.2,0.4,12.6,1.1,18.4,3.4
				c5.2,2,9.8,5.5,12.7,10.4c2.7,4.5,3.7,10.1,1.4,14.9c-2.5,5.4-8.1,8.8-13.8,10.2c-7.8,1.9-16,0.2-23.7-1.4
				c-1.1-0.2-2.2,0.7-1.8,1.8c4,12.6-4.2,25.5-14.9,31.7c-12.4,7.2-28,7.7-41.9,6.6c-14.5-1.1-28.9-5.1-41.6-12
				C34.4,221.1,24,212,16.4,200.9c-7.6-11.1-12.4-24-13.2-37.4c-1-15.4,2.7-30.6,8.5-44.7c5.2-12.9,12.1-25.2,20.5-36.3
				c8-10.6,17.7-20.1,29-27C72,48.6,84.4,44.6,97.3,43.9c12.4-0.6,25,2,35.6,8.4c2.6,1.6,5.1,3.4,7.3,5.4
				C141.7,59.1,143.8,57,142.3,55.7L142.3,55.7z"/>
		</g>
	</g>
	<g>
		<g>
			<path class="st0" d="M889.2,220.9C889.2,220.9,889.2,220.9,889.2,220.9c-0.2-0.1-0.5-0.2-0.7-0.3L889.2,220.9z"/>
			<g>
				<path d="M890.7,220.9C890.7,220.9,890.7,220.9,890.7,220.9c0-0.2,0-0.3,0-0.4c0-0.2-0.1-0.4-0.3-0.5c-0.1-0.1-0.2-0.2-0.3-0.3
					c-0.1-0.1-0.3-0.2-0.5-0.3c-0.2-0.1-0.5-0.1-0.7-0.2c-0.2-0.1-0.4-0.1-0.6,0c-0.2,0-0.4,0.1-0.6,0.2c-0.2,0.1-0.3,0.2-0.4,0.4
					c-0.1,0.1-0.2,0.3-0.3,0.5c0,0.1,0,0.3-0.1,0.4c0,0.3,0.1,0.5,0.2,0.8c0.1,0.1,0.2,0.2,0.2,0.3c0.2,0.2,0.4,0.3,0.7,0.4
					c0.2,0.1,0.4,0.2,0.7,0.2c0,0,0.1,0,0.1,0c0.2,0.1,0.4,0.1,0.6,0c0.2,0,0.4-0.1,0.6-0.2c0.2-0.1,0.3-0.2,0.4-0.4
					c0.1-0.1,0.2-0.3,0.3-0.5C890.6,221.2,890.7,221,890.7,220.9c0-0.3-0.1-0.5-0.2-0.8c-0.1-0.1-0.2-0.2-0.2-0.3
					c-0.2-0.2-0.4-0.3-0.7-0.4c-0.2-0.1-0.4-0.2-0.7-0.2c0,0-0.1,0-0.1,0c-0.3,1-0.5,1.9-0.8,2.9c0.2,0.1,0.5,0.1,0.7,0.2
					c-0.4-0.5-0.7-1-1.1-1.4c0,0,0,0,0,0c0,0.2,0,0.4,0.1,0.6c0.1,0.2,0.2,0.3,0.3,0.5c0.1,0.1,0.3,0.2,0.5,0.3
					c0.2,0.1,0.4,0.1,0.6,0.1c0.1,0,0.3,0,0.4-0.1c0.3-0.1,0.5-0.2,0.7-0.4c0.1-0.1,0.2-0.2,0.2-0.3
					C890.6,221.4,890.7,221.2,890.7,220.9z"/>
			</g>
		</g>
		<g>
			<path class="st0" d="M1024.1,53.9c-11.2-15.8-31-23.3-50.3-25.9c-23.9-3.2-48.7-0.1-71,8.9c-8.2,3.3-16.5,7.8-20.6,15.6
				c-4.8,9.2-2.3,20.3-0.1,30.4c9.8,45.2,12.2,92,7,137.9c13.1,4.2,26.9,6.2,40.7,6c4.7-0.1,9.8-0.5,13.4-3.6
				c3.9-3.4,5-9.2,4.2-14.3c-0.9-5.1-3.4-9.8-5.6-14.5c-5.9-12.3-10.3-25.2-13.1-38.6c-1.5-7.4-2.2-16,3-21.4
				c7.5-7.8,20.2-3.1,30.6-0.6c21.2,5.1,45.3-2.2,59-19.1C1035,97.8,1036.7,71.7,1024.1,53.9z M974.1,89.9
				c-3.7,7.8-15.1,11.2-21.8,5.7l0,0.2c-2.7-4.9-5.5-10.1-6-15.7c-0.6-5.6,1.7-11.9,6.7-14.4c4.3-2.1,9.7-1.1,13.7,1.5
				C974,71.9,977.8,82,974.1,89.9z"/>
			<g>
				<path d="M1025.4,53.1c-11-15.4-29.4-23-47.6-26c-21.8-3.6-44.5-1.9-65.5,4.8c-9.2,2.9-19.3,6.5-26.4,13.3
					c-3.5,3.4-6,7.7-7.1,12.4c-1.1,5-0.9,10.1-0.1,15.1c0.8,5.5,2.1,10.9,3.3,16.3c1.2,5.8,2.2,11.6,3.2,17.4
					c1.9,11.6,3.2,23.4,4.1,35.1c1.8,23.5,1.6,47.2-0.6,70.7c-0.3,2.9-0.6,5.8-0.9,8.7c-0.1,0.7,0.5,1.3,1.1,1.4
					c11.9,3.7,24.4,5.8,36.8,6c5.3,0.1,11,0.2,15.9-2.1c4.5-2.2,7-6.6,7.6-11.5c0.7-5.4-1-10.6-3.2-15.4c-2.5-5.4-5.2-10.8-7.4-16.3
					c-2.3-5.7-4.2-11.5-5.8-17.4c-1.5-5.4-3-10.9-3.4-16.5c-0.4-4.6,0-9.8,3.3-13.4c3.1-3.4,7.5-4.3,12-4.1
					c4.9,0.2,9.6,1.6,14.3,2.8c4.7,1.2,9.4,2.1,14.2,2.4c19.3,1,39.2-7.2,50.8-22.8c11.5-15.5,13.8-37.6,5.2-54.9
					C1027.9,57,1026.7,55,1025.4,53.1c-1.1-1.6-3.7-0.1-2.6,1.5c10.9,15.6,10.8,37.2,1.3,53.4c-9.6,16.4-28.6,25.6-47.3,25.9
					c-4.7,0.1-9.5-0.4-14.1-1.5c-4.6-1.1-9.2-2.5-13.9-3.2c-4.4-0.7-9.1-0.9-13.3,0.9c-4.3,1.8-7.3,5.5-8.6,9.9
					c-1.3,4.6-0.9,9.5-0.1,14.2c1,5.6,2.5,11.1,4.1,16.6c1.7,5.7,3.8,11.4,6.2,16.9c2.3,5.3,5.1,10.4,7.2,15.8
					c1.8,4.6,2.8,9.7,0.9,14.5c-1.9,4.9-6.6,6.9-11.6,7.3c-5.8,0.5-11.8,0.2-17.6-0.4c-6-0.6-12-1.6-17.9-3
					c-2.9-0.7-5.8-1.5-8.7-2.4c0.4,0.5,0.7,1,1.1,1.4c2.6-22.9,3.3-46,2.1-69c-1.2-22.8-4.1-45.6-8.9-67.9c-2-9.5-5.1-20.6-0.8-29.9
					c4-8.6,13.2-13,21.5-16.3c20.3-7.9,42.4-10.9,64.1-8.8c17.9,1.7,37,7.2,49.8,20.6c1.5,1.6,2.9,3.3,4.2,5.1
					C1023.9,56.2,1026.5,54.7,1025.4,53.1z"/>
				<path d="M972.8,89.1c-3.3,6.7-13.2,10.4-19.4,5.4c-0.9-0.7-2.7-0.4-2.6,1.1c0,0.1,0,0.2,0,0.2c0.9-0.3,1.9-0.5,2.8-0.8
					c-2.5-4.6-5.2-9.4-5.8-14.7c-0.4-4,0.5-8.4,3.3-11.4c3.3-3.5,8.4-3.5,12.6-1.7c3.9,1.7,6.9,4.9,8.7,8.7
					C974.3,80.1,974.7,85,972.8,89.1c-0.8,1.7,1.8,3.3,2.6,1.5c4.1-9.1-0.2-20.5-8.9-25.3c-4.7-2.6-10.8-3.3-15.4-0.2
					c-4.1,2.8-6.2,7.7-6.3,12.6c-0.3,6.8,3.1,13.1,6.3,18.9c0.7,1.2,2.9,0.8,2.8-0.8c0-0.1,0-0.2,0-0.2c-0.9,0.4-1.7,0.7-2.6,1.1
					c7.7,6.1,19.9,2.6,24.1-6C976.2,88.9,973.6,87.4,972.8,89.1z"/>
			</g>
		</g>
	</g>
	<g>
		<path class="st0" d="M904.1,125.8c-1.5-26.4-9.9-53.6-29.3-71.5c-19.4-17.9-48.2-21.6-74.1-10.6c-14.4,5.1-25.3,17.8-31.3,31.9
			c-6,14.1-7.8,29.6-8.9,44.9c-1.4,20.4-1.5,41.3,4.5,60.9c6,19.6,18.9,37.9,37.5,46.3c26.3,11.8,59.1,0.9,77.9-21
			C899.3,185,905.7,154.6,904.1,125.8z M843.9,152.1c-4.1,5.6-11.5,8.9-18.2,7.1c-8.4-2.3-13.1-11.7-12.9-20.4
			c0.2-8.7,4.3-16.7,8.2-24.4l-1.2,0.9c4.9-4.8,13.3-4.6,18.9-0.6c5.6,4,8.6,10.8,9.4,17.6C849.1,139.2,848,146.5,843.9,152.1z"/>
		<g>
			<path d="M905.6,125.8c-1-17.9-5-36-13.7-51.8c-8.5-15.5-21.6-28.2-38.4-34.2c-16.8-5.9-35.6-4.7-52,2c-4.1,1.7-8,3.3-11.6,5.8
				c-3.5,2.4-6.7,5.2-9.6,8.4c-6,6.5-10.4,14.2-13.5,22.5c-3.7,9.8-5.5,20.2-6.7,30.6c-1.1,10.5-1.7,21.1-1.8,31.7
				c0,19.7,2.7,39.9,12.2,57.5c8.1,15,21,27.8,37.5,33.1c15.8,5,33.1,2.7,47.9-4.2c15.8-7.4,28.3-19.9,36.6-35.2
				c8.7-16.2,12.7-34.6,13.3-52.8C905.9,134.7,905.9,130.3,905.6,125.8c-0.1-1.9-3.1-1.9-3,0c1,17.7-1,35.7-7.2,52.4
				c-5.9,15.9-15.9,30.4-30,40c-13.1,9-29.2,14-45.1,12.6c-16.5-1.5-30.9-10.8-40.7-23.8c-11.1-14.7-16.2-32.8-17.7-51
				c-0.9-10.3-0.7-20.7-0.1-31c0.6-10.1,1.4-20.2,3.4-30.1c3.5-17.2,11.3-34.7,26.3-44.8c3.5-2.4,7.2-4,11.1-5.6
				c4.1-1.7,8.4-3,12.8-3.9c8.3-1.8,16.9-2.2,25.3-0.9c8.3,1.3,16.2,4.1,23.4,8.4c7.2,4.4,13.5,10.3,18.6,17.1
				c10.5,13.9,16.2,30.9,18.7,48c0.6,4.2,1,8.4,1.3,12.6C902.8,127.7,905.8,127.8,905.6,125.8z"/>
			<path d="M842.6,151.3c-5,6.7-15.1,9.5-21.7,3.6c-6.7-5.9-7.5-15.4-5.3-23.6c1.5-5.7,4.2-11,6.8-16.2c0.8-1.6-1-2.9-2.4-1.8
				c-0.4,0.3-0.8,0.6-1.2,0.9c0.7,0.7,1.4,1.4,2.1,2.1c5.1-4.9,13.6-3.7,18.6,0.9c5.8,5.3,7.9,13.8,7.4,21.4
				C846.6,143.2,845.2,147.6,842.6,151.3c-1.1,1.6,1.5,3.1,2.6,1.5c9.6-13.4,4.8-40.3-14-42.5c-4.5-0.5-9.1,0.8-12.3,3.9
				c-1.4,1.4,0.7,3.3,2.1,2.1c0.4-0.3,0.8-0.6,1.2-0.9c-0.8-0.6-1.6-1.2-2.4-1.8c-4.9,9.7-10.4,20.6-7.7,31.8
				c2.1,8.9,9.5,16.8,19.3,15.7c5.6-0.7,10.5-3.8,13.8-8.2C846.3,151.3,843.7,149.8,842.6,151.3z"/>
		</g>
	</g>
</g>
</svg>
